<?xml version="1.0" encoding="UTF-8"?>
<svg id="Capa_1" data-name="Capa 1" xmlns="http://www.w3.org/2000/svg" viewBox="0 0 165 140">
  <defs>
    <style>
      .cls-1 {
        fill: transparent;
      }
    </style>
  </defs>
  <path class="cls-1" d="M0,0c55,0,110,0,165,0,0,46.66,0,93.33,0,140-55,0-110,0-165,0C0,93.34,0,46.67,0,0ZM30.69,61.16c-2.53,1.34-3.8,2.02-5.07,2.69-7.08,3.7-11.24,9.58-11.45,17.5-.35,12.81-.11,25.64-.12,38.46,0,4,2.02,5.6,5.96,5.55,9.99-.12,19.98-.12,29.97-.04,3.98,.03,5.83-1.68,5.8-5.67-.05-6.66,.69-13.4-.11-19.96-1.35-11.02,1.72-19.5,11.54-25.14,9.44-5.42,12.22-13.76,10.58-24.05-.03-.16,.05-.35-.01-.5-.86-2.03-1.24-5.02-2.75-5.78-1.4-.71-4.41,.44-6.01,1.67-5.39,4.18-10.42,8.81-15.67,13.17-3.42,2.85-7.2,3.34-11.56,1.56,11.03-11.99,12.38-20.63,4.71-28.26-6.13-6.1-16.55-6.66-22.5-.41-2.68,2.81-4.81,6.98-5.39,10.8-1.3,8.6,3.97,14.21,12.09,18.41Zm91.81-.57c-4.96,2-8.87,.91-12.4-2.1-4.94-4.21-9.71-8.63-14.82-12.61-1.6-1.24-4.62-2.39-6.02-1.67-1.51,.76-2.36,3.7-2.65,5.8-.43,3.1,.04,6.32-.17,9.47-.28,4.2,1.28,7.28,4.56,9.91,4.8,3.85,9.61,7.76,13.89,12.15,1.85,1.9,3.3,5.02,3.41,7.65,.43,10.14,.33,20.3,.27,30.45-.03,4.04,1.74,5.74,5.71,5.7,9.99-.08,19.97-.1,29.96-.02,4.16,.04,6.07-1.64,6.03-5.95-.11-12.31,.1-24.63-.05-36.95-.1-8.6-4.3-14.82-11.93-18.76-1.22-.63-2.42-1.32-3.8-2.07,12.74-12.45,14.58-20.71,6.8-28.86-6.17-6.47-16.44-6.85-22.93-.85-8.31,7.68-7.15,16.63,4.13,28.71ZM78.63,17.59c0,2.83-.37,5.73,.15,8.45,.26,1.38,2.14,2.44,3.28,3.65,1.18-1.18,3.31-2.29,3.39-3.54,.37-5.63,.37-11.31,0-16.94-.08-1.28-2.13-2.44-3.28-3.65-1.19,1.18-3.13,2.21-3.4,3.58-.54,2.72-.16,5.62-.16,8.45Zm32.82,4.67c-.23-3.29-3.57-4.81-6-2.77-3.05,2.55-5.9,5.42-8.36,8.54-.82,1.04-.16,3.25-.17,4.92,1.8-.07,4.13,.55,5.28-.35,2.99-2.33,5.52-5.28,8.12-8.08,.63-.68,.87-1.73,1.13-2.26Zm-43.23,8.34c-.06-.32,.02-.97-.27-1.27-3.41-3.56-6.78-7.18-10.44-10.47-.53-.48-3.06,.3-3.72,1.2-.66,.9-.73,3.16-.04,3.97,2.78,3.27,5.74,6.46,9.05,9.19,2.32,1.92,5.26,.34,5.42-2.63Z"/>
  <path d="M30.69,61.16c-8.11-4.21-13.39-9.82-12.09-18.41,.58-3.82,2.71-7.99,5.39-10.8,5.96-6.25,16.37-5.69,22.5,.41,7.66,7.62,6.31,16.26-4.71,28.26,4.36,1.78,8.14,1.29,11.56-1.56,5.24-4.37,10.28-9,15.67-13.17,1.6-1.24,4.61-2.38,6.01-1.67,1.51,.77,1.89,3.76,2.75,5.78,.06,.14-.01,.33,.01,.5,1.64,10.29-1.14,18.63-10.58,24.05-9.82,5.64-12.89,14.11-11.54,25.14,.8,6.56,.06,13.3,.11,19.96,.03,4-1.82,5.71-5.8,5.67-9.99-.08-19.98-.07-29.97,.04-3.93,.05-5.96-1.55-5.96-5.55,.01-12.82-.23-25.65,.12-38.46,.21-7.92,4.38-13.8,11.45-17.5,1.28-.67,2.54-1.35,5.07-2.69Z"/>
  <path d="M122.5,60.59c-11.28-12.08-12.43-21.03-4.13-28.71,6.49-6,16.76-5.61,22.93,.85,7.77,8.15,5.93,16.41-6.8,28.86,1.38,.75,2.58,1.44,3.8,2.07,7.62,3.94,11.82,10.16,11.93,18.76,.15,12.31-.06,24.63,.05,36.95,.04,4.3-1.87,5.98-6.03,5.95-9.99-.09-19.97-.07-29.96,.02-3.98,.03-5.74-1.66-5.71-5.7,.07-10.15,.17-20.31-.27-30.45-.11-2.63-1.56-5.75-3.41-7.65-4.29-4.39-9.09-8.3-13.89-12.15-3.28-2.63-4.84-5.7-4.56-9.91,.21-3.15-.26-6.37,.17-9.47,.29-2.11,1.14-5.04,2.65-5.8,1.41-.71,4.43,.43,6.02,1.67,5.12,3.98,9.88,8.4,14.82,12.61,3.53,3.01,7.44,4.1,12.4,2.1Z"/>
  <path d="M78.63,17.59c0-2.83-.38-5.73,.16-8.45,.27-1.36,2.21-2.39,3.4-3.58,1.14,1.21,3.19,2.37,3.28,3.65,.36,5.63,.36,11.31,0,16.94-.08,1.25-2.21,2.36-3.39,3.54-1.15-1.21-3.02-2.27-3.28-3.65-.52-2.73-.15-5.63-.15-8.46Z"/>
  <path d="M111.44,22.26c-.26,.54-.49,1.58-1.13,2.26-2.61,2.8-5.13,5.75-8.12,8.08-1.15,.9-3.49,.28-5.28,.35,.01-1.67-.65-3.88,.17-4.92,2.46-3.11,5.31-5.99,8.36-8.54,2.43-2.04,5.78-.52,6,2.77Z"/>
  <path d="M68.22,30.6c-.17,2.96-3.1,4.54-5.42,2.63-3.3-2.73-6.27-5.92-9.05-9.19-.69-.81-.62-3.07,.04-3.97,.66-.9,3.19-1.68,3.72-1.2,3.66,3.29,7.03,6.91,10.44,10.47,.29,.3,.21,.95,.27,1.27Z"/>
</svg>